<svg width="500" height="500" viewBox="0 0 500 500" fill="none" xmlns="http://www.w3.org/2000/svg">
  <g clip-path="url(#clip0_94_261)">
    <path
      d="M484.38 361.12L491.78 358.36L484.4 355.66L481.69 348.27L478.94 355.67L471.54 358.42L478.92 361.14L481.62 368.52L484.38 361.12Z"
      fill="#F9FAFB" />
    <path
      d="M446.62 434.9L431.53 449.99C430.36 451.16 430.36 453.05 431.53 454.22C432.7 455.39 434.59 455.39 435.76 454.22L450.85 439.13C452.02 437.96 452.02 436.07 450.85 434.9C449.68 433.73 447.79 433.73 446.62 434.9Z"
      fill="#F9FAFB" />
    <path
      d="M461.71 423.49C462.88 424.66 464.77 424.66 465.94 423.49L500 389.43V380.97L461.71 419.26C460.54 420.43 460.54 422.32 461.71 423.49Z"
      fill="#F9FAFB" />
    <path d="M481.38 500L500 480.82V472.36L472.92 500H481.38Z" fill="#F9FAFB" />
    <path
      d="M421 372.85C422.17 374.02 424.06 374.02 425.23 372.85L500 298.08V289.62L421 368.62C419.83 369.79 419.83 371.68 421 372.85Z"
      fill="#F9FAFB" />
    <path
      d="M493.68 345.82C494.85 346.99 496.74 346.99 497.91 345.82L500 343.73V335.27L493.68 341.59C492.51 342.76 492.51 344.65 493.68 345.82Z"
      fill="#F9FAFB" />
    <path
      d="M468.56 371.49C467.39 370.32 465.5 370.32 464.33 371.49L384.66 451.16C383.49 452.33 383.49 454.22 384.66 455.39C385.83 456.56 387.72 456.56 388.89 455.39L468.56 375.72C469.73 374.55 469.73 372.66 468.56 371.49Z"
      fill="#F9FAFB" />
    <path
      d="M272.69 436.04C273.86 434.87 273.86 432.98 272.69 431.81C271.52 430.64 269.63 430.64 268.46 431.81L221.51 478.76C220.34 479.93 220.34 481.82 221.51 482.99C222.68 484.16 224.57 484.16 225.74 482.99L272.69 436.04Z"
      fill="#F9FAFB" />
    <path
      d="M259.83 395.85L250 405.68V405.72L219.81 435.91C218.64 437.08 218.64 438.97 219.81 440.14C220.98 441.31 222.87 441.31 224.04 440.14L250 414.18V414.14L264.06 400.08C265.23 398.91 265.23 397.02 264.06 395.85C262.89 394.68 261 394.68 259.83 395.85Z"
      fill="#F9FAFB" />
    <path
      d="M419.52 462L381.52 500H389.98L423.75 466.23C424.92 465.06 424.92 463.17 423.75 462C422.58 460.83 420.69 460.83 419.52 462Z"
      fill="#F9FAFB" />
    <path
      d="M462.66 286.28C463.83 287.45 465.72 287.45 466.89 286.28L500 252.46V243.87L462.66 282.05C461.49 283.22 461.49 285.11 462.66 286.28Z"
      fill="#F9FAFB" />
    <path
      d="M366.58 336.37C365.41 335.2 363.52 335.2 362.35 336.37L282.68 416.04C281.51 417.21 281.51 419.1 282.68 420.27C283.85 421.44 285.74 421.44 286.91 420.27L366.58 340.6C367.75 339.43 367.75 337.54 366.58 336.37Z"
      fill="#F9FAFB" />
    <path
      d="M293.37 320.05L296.07 327.43L298.83 320.03L306.23 317.27L298.85 314.57L296.14 307.19L293.39 314.59L285.99 317.34L293.37 320.05Z"
      fill="#F9FAFB" />
    <path d="M435.68 500L500 435.11V426.65L427.22 500H435.68Z" fill="#F9FAFB" />
    <path
      d="M351.23 484.59L335.82 500H344.28L355.46 488.82C356.63 487.65 356.63 485.76 355.46 484.59C354.29 483.42 352.4 483.42 351.23 484.59Z"
      fill="#F9FAFB" />
    <path
      d="M375.25 460.57L362.84 472.98C361.67 474.15 361.67 476.04 362.84 477.21C364.01 478.38 365.9 478.38 367.07 477.21L379.48 464.8C380.65 463.63 380.65 461.74 379.48 460.57C378.31 459.4 376.42 459.4 375.25 460.57Z"
      fill="#F9FAFB" />
    <path
      d="M250 322.81L291.15 281.66C292.32 280.49 292.32 278.6 291.15 277.43C289.98 276.26 288.09 276.26 286.92 277.43L250 314.35V314.32L99.2 465.12C98.03 466.29 98.03 468.18 99.2 469.35C100.37 470.52 102.26 470.52 103.43 469.35L250 322.78V322.81Z"
      fill="#F9FAFB" />
    <path
      d="M283.75 330.65C282.58 329.48 280.69 329.48 279.52 330.65L213.42 396.75C212.25 397.92 212.25 399.81 213.42 400.98C214.59 402.15 216.48 402.15 217.65 400.98L283.75 334.89C284.92 333.72 284.92 331.83 283.75 330.66V330.65Z"
      fill="#F9FAFB" />
    <path
      d="M445.08 309.32L455.49 298.91C456.66 297.74 456.66 295.85 455.49 294.68C454.32 293.51 452.43 293.51 451.26 294.68L440.85 305.09C439.68 306.26 439.68 308.15 440.85 309.32C442.02 310.49 443.91 310.49 445.08 309.32Z"
      fill="#F9FAFB" />
    <path
      d="M416.48 377.87C415.31 376.7 413.42 376.7 412.25 377.87L290.12 500H298.58L416.48 382.1C417.65 380.93 417.65 379.04 416.48 377.87Z"
      fill="#F9FAFB" />
    <path
      d="M353.3 400.58L431.47 322.41C432.64 321.24 432.64 319.35 431.47 318.18C430.3 317.01 428.41 317.01 427.24 318.18L349.07 396.35C347.9 397.52 347.9 399.41 349.07 400.58C350.24 401.75 352.13 401.75 353.3 400.58Z"
      fill="#F9FAFB" />
    <path
      d="M379.11 313.75L376.36 321.15L368.96 323.9L376.34 326.62L379.04 334L381.8 326.6L389.2 323.84L381.82 321.14L379.11 313.75Z"
      fill="#F9FAFB" />
    <path
      d="M333.71 411.05L326.31 413.8L333.69 416.51L336.39 423.89L339.16 416.49L346.56 413.73L339.18 411.03L336.46 403.65L333.71 411.05Z"
      fill="#F9FAFB" />
    <path
      d="M323.1 428.23C321.93 427.06 320.04 427.06 318.87 428.23L250 497.1V497.12L247.12 500H255.56L323.1 432.46C324.27 431.29 324.27 429.4 323.1 428.23Z"
      fill="#F9FAFB" />
    <path d="M212.6 0H208.91L210.75 4.99L212.6 0Z" fill="#F9FAFB" />
    <path
      d="M163.34 0.84L164.18 0H158.53C158.67 0.3 158.86 0.59 159.11 0.84C160.28 2.01 162.17 2.01 163.34 0.84Z"
      fill="#F9FAFB" />
    <path
      d="M65.23 94.72C66.4 95.89 68.29 95.89 69.46 94.72L149.13 15.05C150.3 13.88 150.3 11.99 149.13 10.82C147.96 9.65 146.07 9.65 144.9 10.82L65.23 90.49C64.06 91.66 64.06 93.55 65.23 94.72Z"
      fill="#F9FAFB" />
    <path
      d="M95.86 28.48L98.61 21.08L106.01 18.33L98.63 15.62L95.93 8.24L93.16 15.63L85.76 18.4L93.14 21.1L95.86 28.48Z"
      fill="#F9FAFB" />
    <path
      d="M160.77 44.88C159.6 43.71 157.71 43.71 156.54 44.88L0 201.42V209.88L160.77 49.11C161.94 47.94 161.94 46.05 160.77 44.88Z"
      fill="#F9FAFB" />
    <path
      d="M112.94 5.69L118.63 0H110.17L108.71 1.46C107.54 2.63 107.54 4.52 108.71 5.69C109.88 6.86 111.77 6.86 112.94 5.69Z"
      fill="#F9FAFB" />
    <path d="M64.32 0L0 64.32V72.78L70.23 2.55C70.71 2.07 70.88 0.97 70.79 0H64.32Z" fill="#F9FAFB" />
    <path
      d="M139.3 117.49L146.7 114.74L139.32 112.02L136.62 104.64L133.86 112.04L126.46 114.8L133.84 117.5L136.55 124.88L139.3 117.49Z"
      fill="#F9FAFB" />
    <path
      d="M171.98 37.9L196.6 13.28C197.77 12.11 197.77 10.22 196.6 9.05C195.43 7.88 193.54 7.88 192.37 9.05L167.75 33.67C166.58 34.84 166.58 36.73 167.75 37.9C168.92 39.07 170.81 39.07 171.98 37.9Z"
      fill="#F9FAFB" />
    <path
      d="M1.34 112.91C2.51 114.08 4.4 114.08 5.57 112.91L83.74 34.74C84.91 33.57 84.91 31.68 83.74 30.51C82.57 29.34 80.68 29.34 79.51 30.51L1.34 108.68C0.17 109.85 0.17 111.74 1.34 112.91Z"
      fill="#F9FAFB" />
    <path
      d="M41.53 118.42C40.36 117.25 38.47 117.25 37.3 118.42L0 155.72V164.18L41.53 122.65C42.7 121.48 42.7 119.59 41.53 118.42Z"
      fill="#F9FAFB" />
    <path
      d="M148.06 103.29C149.23 104.46 151.12 104.46 152.29 103.29L255.58 0H247.12L148.06 99.06C146.89 100.23 146.89 102.12 148.06 103.29Z"
      fill="#F9FAFB" />
    <path
      d="M12.17 20.77L14.93 13.37L22.33 10.61L14.95 7.91L12.23 0.53L9.48 7.93L2.08 10.68L9.46 13.39L12.17 20.77Z"
      fill="#F9FAFB" />
    <path
      d="M50 104.49L42.6 107.26L49.98 109.96L52.7 117.34L55.45 109.94L62.85 107.19L55.47 104.48L52.77 97.1L50 104.49Z"
      fill="#F9FAFB" />
    <path
      d="M168.91 130.52L198.14 101.29C199.31 100.12 199.31 98.23 198.14 97.06C196.97 95.89 195.08 95.89 193.91 97.06L164.68 126.29C163.51 127.46 163.51 129.35 164.68 130.52C165.85 131.69 167.74 131.69 168.91 130.52Z"
      fill="#F9FAFB" />
    <path
      d="M250 85.79L227.59 108.2C226.42 109.37 226.42 111.26 227.59 112.43C228.76 113.6 230.65 113.6 231.82 112.43L250.01 94.24V94.27L344.28 0H335.82L250 85.82V85.79Z"
      fill="#F9FAFB" />
    <path
      d="M166.91 224.27L174.31 221.52L166.93 218.8L164.23 211.42L161.46 218.82L154.06 221.58L161.44 224.28L164.16 231.67L166.91 224.27Z"
      fill="#F9FAFB" />
    <path
      d="M11.42 240.91C12.59 239.74 12.59 237.85 11.42 236.68C10.25 235.51 8.36 235.51 7.19 236.68L0 243.87V252.46L11.42 240.91Z"
      fill="#F9FAFB" />
    <path
      d="M125.51 125.84C124.34 124.67 122.45 124.67 121.28 125.84L20.25 226.87C19.08 228.04 19.08 229.93 20.25 231.1C21.42 232.27 23.31 232.27 24.48 231.1L125.52 130.06C126.69 128.89 126.69 127 125.52 125.83L125.51 125.84Z"
      fill="#F9FAFB" />
    <path
      d="M136.08 206.82C137.25 207.99 139.14 207.99 140.31 206.82L219.98 127.15C221.15 125.98 221.15 124.09 219.98 122.92C218.81 121.75 216.92 121.75 215.75 122.92L136.08 202.59C134.91 203.76 134.91 205.65 136.08 206.82Z"
      fill="#F9FAFB" />
    <path
      d="M126.67 211.99L114.26 224.4C113.09 225.57 113.09 227.46 114.26 228.63C115.43 229.8 117.32 229.8 118.49 228.63L130.9 216.22C132.07 215.05 132.07 213.16 130.9 211.99C129.73 210.82 127.84 210.82 126.67 211.99Z"
      fill="#F9FAFB" />
    <path
      d="M77.95 222.48L156.82 143.61C157.99 142.44 157.99 140.55 156.82 139.38C155.65 138.21 153.76 138.21 152.59 139.38L73.72 218.25C72.55 219.42 72.55 221.31 73.72 222.48C74.89 223.65 76.78 223.65 77.95 222.48Z"
      fill="#F9FAFB" />
    <path
      d="M478.49 90.06C477.32 88.89 475.43 88.89 474.26 90.06L392.71 171.61C391.54 172.78 391.54 174.67 392.71 175.84C393.88 177.01 395.77 177.01 396.94 175.84L478.49 94.29C479.66 93.12 479.66 91.23 478.49 90.06Z"
      fill="#F9FAFB" />
    <path
      d="M207.49 82.63C206.32 83.8 206.32 85.69 207.49 86.86C208.66 88.03 210.55 88.03 211.72 86.86L298.58 0H290.12L207.49 82.63Z"
      fill="#F9FAFB" />
    <path
      d="M321.39 64.36C322.56 65.53 324.45 65.53 325.62 64.36L389.98 0H381.52L321.39 60.13C320.22 61.3 320.22 63.19 321.39 64.36Z"
      fill="#F9FAFB" />
    <path
      d="M313.08 164.07C314.25 165.24 316.14 165.24 317.31 164.07L375.36 106.02C376.53 104.85 376.53 102.96 375.36 101.79C374.19 100.62 372.3 100.62 371.13 101.79L313.08 159.84C311.91 161.01 311.91 162.9 313.08 164.07Z"
      fill="#F9FAFB" />
    <path
      d="M402.79 115.83L392.38 126.24C391.21 127.41 391.21 129.3 392.38 130.47C393.55 131.64 395.44 131.64 396.61 130.47L407.02 120.06C408.19 118.89 408.19 117 407.02 115.83C405.85 114.66 403.96 114.66 402.79 115.83Z"
      fill="#F9FAFB" />
    <path
      d="M415.8 61.35C414.63 60.18 412.74 60.18 411.57 61.35L382.34 90.58C381.17 91.75 381.17 93.64 382.34 94.81C383.51 95.98 385.4 95.98 386.57 94.81L415.8 65.58C416.97 64.41 416.97 62.52 415.8 61.35Z"
      fill="#F9FAFB" />
    <path
      d="M374.11 57.34C375.28 58.51 377.17 58.51 378.34 57.34L435.68 0H427.22L374.11 53.11C372.94 54.28 372.94 56.17 374.11 57.34Z"
      fill="#F9FAFB" />
    <path
      d="M448.03 33.35L481.38 0H472.92L443.8 29.12C442.63 30.29 442.63 32.18 443.8 33.35C444.97 34.52 446.86 34.52 448.03 33.35Z"
      fill="#F9FAFB" />
    <path
      d="M422.37 241.81L442.55 221.63C443.72 220.46 443.72 218.57 442.55 217.4C441.38 216.23 439.49 216.23 438.32 217.4L424.34 231.38H424.28L274.03 381.98C272.86 383.15 272.86 385.04 274.03 386.21C275.2 387.38 277.09 387.38 278.26 386.21L422.18 241.95C422.24 241.9 422.3 241.86 422.36 241.8L422.37 241.81Z"
      fill="#F9FAFB" />
    <path
      d="M414.8 108.05C415.97 109.22 417.86 109.22 419.03 108.05L497.9 29.18C499.07 28.01 499.07 26.12 497.9 24.95C496.73 23.78 494.84 23.78 493.67 24.95L414.8 103.82C413.63 104.99 413.63 106.88 414.8 108.05Z"
      fill="#F9FAFB" />
    <path
      d="M428.45 38.61L425.7 46.01L418.3 48.76L425.68 51.47L428.38 58.86L431.15 51.46L438.55 48.69L431.17 45.99L428.45 38.61Z"
      fill="#F9FAFB" />
    <path
      d="M486.1 78.22C484.93 79.39 484.93 81.28 486.1 82.45C487.27 83.62 489.16 83.62 490.33 82.45L500 72.78V64.32L486.1 78.22Z"
      fill="#F9FAFB" />
    <path
      d="M484.73 133.9L495.14 123.49C496.31 122.32 496.31 120.43 495.14 119.26C493.97 118.09 492.08 118.09 490.91 119.26L480.5 129.67C479.33 130.84 479.33 132.73 480.5 133.9C481.67 135.07 483.56 135.07 484.73 133.9Z"
      fill="#F9FAFB" />
    <path
      d="M311.24 79.97L318.64 77.2L311.26 74.5L308.54 67.12L305.79 74.52L298.39 77.27L305.77 79.99L308.47 87.37L311.24 79.97Z"
      fill="#F9FAFB" />
    <path
      d="M386.2 136.65C385.03 135.48 383.14 135.48 381.97 136.65L276.01 242.61L250 268.1L221.13 296.98C219.96 298.15 219.96 300.04 221.13 301.21C222.3 302.38 224.19 302.38 225.36 301.21L250 276.57L284.47 242.61H284.35L386.2 140.88C387.37 139.71 387.37 137.82 386.2 136.65Z"
      fill="#F9FAFB" />
    <path
      d="M294.7 177.01L287.3 179.76L294.68 182.48L297.38 189.86L300.14 182.46L307.54 179.7L300.16 176.99L297.45 169.61L294.7 177.01Z"
      fill="#F9FAFB" />
    <path
      d="M286.07 195.31C287.24 194.14 287.24 192.25 286.07 191.08C284.9 189.91 283.01 189.91 281.84 191.08L113.91 359.01C112.74 360.18 112.74 362.07 113.91 363.24C115.08 364.41 116.97 364.41 118.14 363.24L286.07 195.31Z"
      fill="#F9FAFB" />
    <path
      d="M379.67 178.79L376.91 186.19L369.51 188.95L376.89 191.65L379.61 199.03L382.36 191.63L389.76 188.88L382.38 186.17L379.67 178.79Z"
      fill="#F9FAFB" />
    <path
      d="M363.99 200.33L314.32 250H314.28L300.66 263.62C299.49 264.79 299.49 266.68 300.66 267.85C301.83 269.02 303.72 269.02 304.89 267.85L322.74 250H322.78L368.22 204.56C369.39 203.39 369.39 201.5 368.22 200.33C367.05 199.16 365.16 199.16 363.99 200.33Z"
      fill="#F9FAFB" />
    <path
      d="M450.92 209.03C452.09 210.2 453.98 210.2 455.15 209.03L500 164.18V155.72L450.92 204.8C449.75 205.97 449.75 207.86 450.92 209.03Z"
      fill="#F9FAFB" />
    <path
      d="M472.99 141.27C471.82 140.1 469.93 140.1 468.76 141.27L360.03 250H359.99L308.96 301.03C307.79 302.2 307.79 304.09 308.96 305.26C310.13 306.43 312.02 306.43 313.19 305.26L368.45 250H368.49L473 145.49C474.17 144.32 474.17 142.43 473 141.26L472.99 141.27Z"
      fill="#F9FAFB" />
    <path
      d="M393.03 308.39C391.86 309.56 391.86 311.45 393.03 312.62C394.2 313.79 396.09 313.79 397.26 312.62L500.01 209.87V201.41L393.03 308.39Z"
      fill="#F9FAFB" />
    <path
      d="M291.4 90.12L176.68 204.82C175.51 205.99 175.51 207.88 176.68 209.05C177.85 210.22 179.74 210.22 180.91 209.05L295.62 94.35C296.79 93.18 296.79 91.29 295.62 90.12C294.45 88.95 292.56 88.95 291.39 90.12H291.4Z"
      fill="#F9FAFB" />
    <path
      d="M210.81 484.75L208.05 492.15L200.65 494.91L208.03 497.61L208.91 500H212.6L213.5 497.59L220.89 494.84L213.51 492.13L210.81 484.75Z"
      fill="#F9FAFB" />
    <path
      d="M212.18 447.77C211.01 446.6 209.12 446.6 207.95 447.77L159.11 496.61C158.19 497.53 158.01 498.89 158.53 500H164.18L212.18 452C213.35 450.83 213.35 448.94 212.18 447.77Z"
      fill="#F9FAFB" />
    <path
      d="M65.77 498.55L64.32 500H70.79C70.67 499.47 70.41 498.97 70 498.55C68.83 497.38 66.94 497.38 65.77 498.55Z"
      fill="#F9FAFB" />
    <path
      d="M67.74 409.42C66.57 408.25 64.68 408.25 63.51 409.42L0 472.36V480.82L67.74 413.65C68.91 412.48 68.91 410.59 67.74 409.42Z"
      fill="#F9FAFB" />
    <path
      d="M206.68 407.71C205.51 406.54 203.62 406.54 202.45 407.71L110.16 500H118.62L206.68 411.94C207.85 410.77 207.85 408.88 206.68 407.71Z"
      fill="#F9FAFB" />
    <path
      d="M16.64 267.62L13.89 275.02L6.49 277.77L13.88 280.48L16.58 287.86L19.34 280.46L26.74 277.7L19.36 275L16.64 267.62Z"
      fill="#F9FAFB" />
    <path
      d="M79.46 260.59C78.29 259.42 76.4 259.42 75.23 260.59L0 335.27V343.73L79.46 264.83C80.63 263.66 80.63 261.77 79.46 260.6V260.59Z"
      fill="#F9FAFB" />
    <path
      d="M112.55 318.91C111.38 317.74 109.49 317.74 108.32 318.91L0 427.22V435.68L112.55 323.13C113.72 321.96 113.72 320.07 112.55 318.9V318.91Z"
      fill="#F9FAFB" />
    <path
      d="M28.64 357.11C27.47 355.94 25.58 355.94 24.41 357.11L0 381.52V389.98L28.64 361.34C29.81 360.17 29.81 358.28 28.64 357.11Z"
      fill="#F9FAFB" />
    <path
      d="M6.78 287.1C5.61 285.93 3.72 285.93 2.55 287.1L0 289.65V298.11L6.78 291.33C7.95 290.16 7.95 288.27 6.78 287.1Z"
      fill="#F9FAFB" />
    <path
      d="M31.68 267.9L67.55 232.03C68.72 230.86 68.72 228.97 67.55 227.8C66.38 226.63 64.49 226.63 63.32 227.8L27.45 263.67C26.28 264.84 26.28 266.73 27.45 267.9C28.62 269.07 30.51 269.07 31.68 267.9Z"
      fill="#F9FAFB" />
    <path
      d="M55.73 462.89L26.5 492.12C25.33 493.29 25.33 495.18 26.5 496.35C27.67 497.52 29.56 497.52 30.73 496.35L59.96 467.12C61.13 465.95 61.13 464.06 59.96 462.89C58.79 461.72 56.9 461.72 55.73 462.89Z"
      fill="#F9FAFB" />
    <path
      d="M119.73 307.49C118.56 308.66 118.56 310.55 119.73 311.72C120.9 312.89 122.79 312.89 123.96 311.72L367.52 68.16C368.69 66.99 368.69 65.1 367.52 63.93C366.35 62.76 364.46 62.76 363.29 63.93L119.72 307.5L119.73 307.49Z"
      fill="#F9FAFB" />
    <path
      d="M33.62 352.13C34.79 353.3 36.68 353.3 37.85 352.13L139.98 250H139.97L153 236.97C154.17 235.8 154.17 233.91 153 232.74C151.83 231.57 149.94 231.57 148.77 232.74L131.51 250H131.52L33.62 347.9C32.45 349.07 32.45 350.96 33.62 352.13Z"
      fill="#F9FAFB" />
    <path
      d="M210.16 307.95L199.75 318.36C198.58 319.53 198.58 321.42 199.75 322.59C200.92 323.76 202.81 323.76 203.98 322.59L214.39 312.18C215.56 311.01 215.56 309.12 214.39 307.95C213.22 306.78 211.33 306.78 210.16 307.95Z"
      fill="#F9FAFB" />
    <path
      d="M86.44 253.61C87.61 254.78 89.5 254.78 90.67 253.61L94.28 250L104.19 240.25C105.36 239.08 105.36 237.19 104.19 236.02C103.02 234.85 101.13 234.85 99.96 236.02L85.98 250C85.31 251.14 85.46 252.63 86.44 253.61Z"
      fill="#F9FAFB" />
    <path
      d="M87.59 476.73L75.18 489.14C74.01 490.31 74.01 492.2 75.18 493.37C76.35 494.54 78.24 494.54 79.41 493.37L91.82 480.96C92.99 479.79 92.99 477.9 91.82 476.73C90.65 475.56 88.76 475.56 87.59 476.73Z"
      fill="#F9FAFB" />
    <path
      d="M102.89 384.35L105.66 376.95L113.06 374.18L105.68 371.48L102.96 364.1L100.21 371.5L92.81 374.25L100.19 376.96L102.89 384.35Z"
      fill="#F9FAFB" />
    <path
      d="M87.73 385.19L77.32 395.6C76.15 396.77 76.15 398.66 77.32 399.83C78.49 401 80.38 401 81.55 399.83L91.96 389.42C93.13 388.25 93.13 386.36 91.96 385.19C90.79 384.02 88.9 384.02 87.73 385.19Z"
      fill="#F9FAFB" />
    <path
      d="M192.48 330.37C191.31 329.2 189.42 329.2 188.25 330.37L68.54 450.08C67.37 451.25 67.37 453.14 68.54 454.31C69.71 455.48 71.6 455.48 72.77 454.31L192.48 334.6C193.65 333.43 193.65 331.54 192.48 330.37Z"
      fill="#F9FAFB" />
  </g>
  <defs>
    <clipPath id="clip0_94_261">
      <rect width="500" height="500" fill="white" />
    </clipPath>
  </defs>
</svg>