<svg width="73" height="73" viewBox="0 0 73 73" fill="none" xmlns="http://www.w3.org/2000/svg">
<path d="M71.9779 62.99C71.9779 58.025 67.953 54 62.9879 54C58.0229 54 53.9979 58.025 53.9979 62.99C53.9979 67.955 58.0229 71.98 62.9879 71.98C67.953 71.98 71.9779 67.955 71.9779 62.99Z" fill="white"/>
<path d="M38.4479 0.0999866C16.7579 -1.33001 -1.15207 16.43 0.0579262 38.08C1.04793 55.87 15.2679 70.48 33.0379 71.9C38.5679 72.34 43.8779 71.54 48.6879 69.73L42.3279 52.85C39.7679 53.82 36.9079 54.21 33.9479 53.88C25.7179 52.97 19.0579 46.32 18.1379 38.09C16.8679 26.67 26.2779 17.11 37.6479 18.12C46.6879 18.92 53.8279 26.65 53.9779 35.72C54.0179 38.09 53.5979 40.34 52.7979 42.41L69.6679 48.83C71.4579 44.09 72.2979 38.87 71.9079 33.4C70.6479 15.64 56.2179 1.26999 38.4479 0.0999866V0.0999866Z" fill="white"/>
</svg>
