<svg viewBox="-12 -12 96 96" fill="none" xmlns="http://www.w3.org/2000/svg">
  <path
    d="M71.977 62.97C71.977 58.005 67.9521 53.98 62.987 53.98C58.022 53.98 53.997 58.005 53.997 62.97C53.997 67.935 58.022 71.96 62.987 71.96C67.9521 71.96 71.977 67.935 71.977 62.97Z"
    fill="currentColor" />
  <path
    d="M38.447 0.0800015C16.757 -1.35 -1.14297 16.41 0.0570283 38.06C1.04703 55.85 15.267 70.46 33.037 71.88C38.567 72.32 43.877 71.52 48.687 69.71L42.327 52.83C39.767 53.8 36.907 54.19 33.947 53.86C25.717 52.95 19.057 46.3 18.137 38.07C16.867 26.65 26.277 17.09 37.647 18.1C46.687 18.9 53.827 26.63 53.977 35.7C54.017 38.07 53.597 40.32 52.797 42.39L69.667 48.81C71.457 44.07 72.297 38.85 71.907 33.38C70.647 15.62 56.217 1.25 38.447 0.0800015V0.0800015Z"
    fill="currentColor" />
</svg>