<svg viewBox="-12 -12 96 96" fill="none" xmlns="http://www.w3.org/2000/svg">
  <path
    d="M57.2591 49.9689C55.249 47.9571 52.6175 46.9534 49.986 46.9534C47.3545 46.9534 44.7188 47.9571 42.7087 49.9689C30.8542 59.6976 33.9485 61.7051 17.6196 61.7051L43.2359 36.0708C43.2359 36.0708 43.2616 36.045 43.2744 36.0322L70.4936 8.78928C72.1694 7.11206 72.508 4.46971 71.2008 2.39357C70.2408 0.866488 68.5093 0 66.705 0H5.1393C2.76924 0 0.664899 1.63003 0.1206 4.0193C-0.27798 5.77802 0.334896 7.61823 1.61207 8.89651L28.7241 36.0322L1.56921 63.215C-0.110831 64.8922 -0.445126 67.5346 0.857761 69.6107C1.81778 71.1378 3.55354 72 5.35786 72H66.855C69.2251 72 71.3294 70.3743 71.8737 67.9807C72.2765 66.222 71.6594 64.3818 70.3865 63.1078L57.2591 49.9689ZM17.5553 10.2949H36.9615C43.4116 10.2949 46.6431 18.1019 42.0787 22.666L35.9971 28.7528L17.5553 10.2949Z"
    fill="currentColor" />
</svg>